<svg xmlns="http://www.w3.org/2000/svg" xmlns:xlink="http://www.w3.org/1999/xlink" width="302.5" height="190.219" viewBox="0 0 302.5 190.219"><defs><filter id="a" x="24.5" y="0" width="278" height="73" filterUnits="userSpaceOnUse"><feOffset dy="3" input="SourceAlpha"/><feGaussianBlur stdDeviation="3" result="b"/><feFlood flood-opacity="0.161"/><feComposite operator="in" in2="b"/><feComposite in="SourceGraphic"/></filter><filter id="c" x="24.5" y="124.219" width="240" height="66" filterUnits="userSpaceOnUse"><feOffset dy="3" input="SourceAlpha"/><feGaussianBlur stdDeviation="3" result="d"/><feFlood flood-opacity="0.161"/><feComposite operator="in" in2="d"/><feComposite in="SourceGraphic"/></filter><filter id="e" x="24.5" y="65.219" width="240" height="66" filterUnits="userSpaceOnUse"><feOffset dy="3" input="SourceAlpha"/><feGaussianBlur stdDeviation="3" result="f"/><feFlood flood-opacity="0.161"/><feComposite operator="in" in2="f"/><feComposite in="SourceGraphic"/></filter><filter id="g" x="0" y="0" width="25.343" height="190.219" filterUnits="userSpaceOnUse"><feOffset dy="3" input="SourceAlpha"/><feGaussianBlur stdDeviation="3" result="h"/><feFlood flood-opacity="0.161"/><feComposite operator="in" in2="h"/><feComposite in="SourceGraphic"/></filter></defs><g transform="translate(-58.5 -215.903)"><g transform="matrix(1, 0, 0, 1, 58.5, 215.9)" filter="url(#a)"><rect width="260" height="55" rx="21" transform="translate(33.5 6)" fill="#fcfcfc"/></g><circle cx="20.5" cy="20.5" r="20.5" transform="translate(103.873 228.903)" fill="#e4e7ea"/><g transform="matrix(1, 0, 0, 1, 58.5, 215.9)" filter="url(#c)"><rect width="222" height="48" rx="21" transform="translate(33.5 130.22)" fill="#feeddf"/></g><circle cx="14.5" cy="14.5" r="14.5" transform="translate(103.873 355.622)" fill="#fff"/><g transform="matrix(1, 0, 0, 1, 58.5, 215.9)" filter="url(#e)"><rect width="222" height="48" rx="21" transform="translate(33.5 71.22)" fill="#fcdbdb"/></g><circle cx="14.5" cy="14.5" r="14.5" transform="translate(103.873 296.622)" fill="#fff"/><g transform="matrix(1, 0, 0, 1, 58.5, 215.9)" filter="url(#g)"><rect width="172.219" height="7.343" rx="3.672" transform="translate(16.34 6) rotate(90)" fill="#efefef"/></g><g transform="translate(74.843 331.079) rotate(90)" fill="#b7b7b7" stroke="#b7b7b7" stroke-width="1"><rect width="40.5" height="7.343" rx="3.672" stroke="none"/><rect x="0.5" y="0.5" width="39.5" height="6.343" rx="3.172" fill="none"/></g><g transform="translate(252.051 317.395) rotate(180)" fill="#b7b7b7" stroke="#b7b7b7" stroke-width="1" opacity="0.55"><rect width="107.178" height="12.545" rx="6.273" stroke="none"/><rect x="0.5" y="0.5" width="106.178" height="11.545" rx="5.773" fill="none"/></g><g transform="translate(285.5 376.165) rotate(180)" fill="#b7b7b7" stroke="#b7b7b7" stroke-width="1" opacity="0.55"><rect width="140.627" height="10.859" rx="5.429" stroke="none"/><rect x="0.5" y="0.5" width="139.627" height="9.859" rx="4.929" fill="none"/></g><g transform="translate(270.028 255.676) rotate(180)" fill="#b7b7b7" stroke="#b7b7b7" stroke-width="1" opacity="0.55"><rect width="121.117" height="12.545" rx="6.273" stroke="none"/><rect x="0.5" y="0.5" width="120.117" height="11.545" rx="5.773" fill="none"/></g><g transform="translate(334.028 255.676) rotate(180)" fill="#b7b7b7" stroke="#b7b7b7" stroke-width="1" opacity="0.55"><rect width="51.42" height="12.545" rx="6.273" stroke="none"/><rect x="0.5" y="0.5" width="50.42" height="11.545" rx="5.773" fill="none"/></g><path d="M23.159,8.605a4.558,4.558,0,0,1-6.46,5.718L15.438,15.7l.9.9.538-.538a.7.7,0,0,1,.995,0l4.359,4.4a.7.7,0,0,1,0,.995l-1.99,1.99a.7.7,0,0,1-.995,0l-4.359-4.4a.7.7,0,0,1,0-.995l.491-.491L14.52,16.7,8.491,23.291a1.406,1.406,0,0,1-1.99,0l-.5-.5A1.406,1.406,0,0,1,6,20.8l6.868-5.752L8.31,10.478H6.87L5.2,7.8,6.544,6.453,9.286,8.131,9.3,9.541l4.614,4.632,1.342-1.124a4.562,4.562,0,0,1,5.405-6.927L17.71,9.038,20.2,11.526l2.962-2.921ZM7.654,21.506a.7.7,0,1,0,0,1A.7.7,0,0,0,7.654,21.506Z" transform="translate(110.018 234.659)" fill="#8e8b8b"/><path d="M18.625,7.893A3.407,3.407,0,0,1,13.8,12.167L12.854,13.2l.672.675.4-.4a.525.525,0,0,1,.744,0l3.259,3.292a.525.525,0,0,1,0,.744l-1.487,1.487a.525.525,0,0,1-.744,0L12.441,15.7a.525.525,0,0,1,0-.744l.367-.367-.641-.642L7.661,18.871a1.051,1.051,0,0,1-1.487,0L5.8,18.5a1.051,1.051,0,0,1,0-1.487l5.134-4.3L7.526,9.293H6.449l-1.246-2,1-1L8.255,7.539l.013,1.054,3.449,3.463,1-.84a3.41,3.41,0,0,1,4.04-5.178l-2.21,2.179,1.86,1.86,2.214-2.183ZM7.035,17.536a.526.526,0,1,0,0,.744A.526.526,0,0,0,7.035,17.536Z" transform="translate(106.329 357.64)" fill="#8e8b8b"/><path d="M18.625,7.893A3.407,3.407,0,0,1,13.8,12.167L12.854,13.2l.672.675.4-.4a.525.525,0,0,1,.744,0l3.259,3.292a.525.525,0,0,1,0,.744l-1.487,1.487a.525.525,0,0,1-.744,0L12.441,15.7a.525.525,0,0,1,0-.744l.367-.367-.641-.642L7.661,18.871a1.051,1.051,0,0,1-1.487,0L5.8,18.5a1.051,1.051,0,0,1,0-1.487l5.134-4.3L7.526,9.293H6.449l-1.246-2,1-1L8.255,7.539l.013,1.054,3.449,3.463,1-.84a3.41,3.41,0,0,1,4.04-5.178l-2.21,2.179,1.86,1.86,2.214-2.183ZM7.035,17.536a.526.526,0,1,0,0,.744A.526.526,0,0,0,7.035,17.536Z" transform="translate(106.329 298.64)" fill="#8e8b8b"/></g></svg>