<svg xmlns="http://www.w3.org/2000/svg" xmlns:xlink="http://www.w3.org/1999/xlink" width="250" height="348" viewBox="0 0 250 348"><defs><filter id="a" x="0" y="0" width="250" height="348" filterUnits="userSpaceOnUse"><feOffset dy="3" input="SourceAlpha"/><feGaussianBlur stdDeviation="3" result="b"/><feFlood flood-opacity="0.161"/><feComposite operator="in" in2="b"/><feComposite in="SourceGraphic"/></filter><filter id="c" x="36.516" y="180.993" width="42.557" height="43" filterUnits="userSpaceOnUse"><feOffset dy="3" input="SourceAlpha"/><feGaussianBlur stdDeviation="3" result="d"/><feFlood flood-opacity="0.161"/><feComposite operator="in" in2="d"/><feComposite in="SourceGraphic"/></filter><filter id="e" x="108.516" y="180.993" width="42.557" height="43" filterUnits="userSpaceOnUse"><feOffset dy="3" input="SourceAlpha"/><feGaussianBlur stdDeviation="3" result="f"/><feFlood flood-opacity="0.161"/><feComposite operator="in" in2="f"/><feComposite in="SourceGraphic"/></filter><filter id="g" x="72.222" y="180.993" width="42.557" height="43" filterUnits="userSpaceOnUse"><feOffset dy="3" input="SourceAlpha"/><feGaussianBlur stdDeviation="3" result="h"/><feFlood flood-opacity="0.161"/><feComposite operator="in" in2="h"/><feComposite in="SourceGraphic"/></filter><filter id="i" x="36.222" y="237.276" width="42.557" height="43" filterUnits="userSpaceOnUse"><feOffset dy="3" input="SourceAlpha"/><feGaussianBlur stdDeviation="3" result="j"/><feFlood flood-opacity="0.161"/><feComposite operator="in" in2="j"/><feComposite in="SourceGraphic"/></filter><filter id="k" x="71.927" y="237.276" width="42.557" height="43" filterUnits="userSpaceOnUse"><feOffset dy="3" input="SourceAlpha"/><feGaussianBlur stdDeviation="3" result="l"/><feFlood flood-opacity="0.161"/><feComposite operator="in" in2="l"/><feComposite in="SourceGraphic"/></filter></defs><g transform="translate(-59 -235)"><g transform="matrix(1, 0, 0, 1, 59, 235)" filter="url(#a)"><rect width="232" height="330" rx="38" transform="translate(9 6)" fill="#fff"/></g><rect width="205" height="305" rx="29" transform="translate(81 254)" fill="#a2a2a2"/><rect width="63" height="9" rx="4.5" transform="translate(104.5 406)" fill="#efefef"/><g transform="translate(132 275)" fill="none" stroke="#d6ebff" stroke-width="7"><ellipse cx="51.5" cy="51" rx="51.5" ry="51" stroke="none"/><ellipse cx="51.5" cy="51" rx="48" ry="47.5" fill="none"/></g><g transform="matrix(1, 0, 0, 1, 59, 235)" filter="url(#c)"><ellipse cx="12.278" cy="12.5" rx="12.278" ry="12.5" transform="translate(45.52 186.99)" fill="#cfe5f7" opacity="0.446"/></g><path d="M34.932,38.35c7.993,0,14.466-7.238,14.466-16.175S42.925,6,34.932,6,20.466,13.238,20.466,22.175,26.94,38.35,34.932,38.35Zm0,8.087C25.276,46.437,6,51.855,6,62.612V70.7H63.865V62.612C63.865,51.855,44.589,46.437,34.932,46.437Z" transform="translate(148.568 282.772)" fill="#ededed"/><rect width="48" height="9" rx="4.5" transform="translate(104.5 459.789)" fill="#efefef" opacity="0.323"/><g transform="matrix(1, 0, 0, 1, 59, 235)" filter="url(#e)"><ellipse cx="12.278" cy="12.5" rx="12.278" ry="12.5" transform="translate(117.52 186.99)" fill="#f8aeae" opacity="0.446"/></g><g transform="matrix(1, 0, 0, 1, 59, 235)" filter="url(#g)"><ellipse cx="12.278" cy="12.5" rx="12.278" ry="12.5" transform="translate(81.22 186.99)" fill="#dec9f7" opacity="0.446"/></g><g transform="matrix(1, 0, 0, 1, 59, 235)" filter="url(#i)"><ellipse cx="12.278" cy="12.5" rx="12.278" ry="12.5" transform="translate(45.22 243.28)" fill="#fff"/></g><g transform="matrix(1, 0, 0, 1, 59, 235)" filter="url(#k)"><ellipse cx="12.278" cy="12.5" rx="12.278" ry="12.5" transform="translate(80.93 243.28)" fill="#fff"/></g><rect width="50" height="3" rx="1.5" transform="translate(159 546)"/></g></svg>