<svg xmlns="http://www.w3.org/2000/svg" xmlns:xlink="http://www.w3.org/1999/xlink" width="250" height="282" viewBox="0 0 250 282"><defs><filter id="a" x="0" y="80" width="250" height="202" filterUnits="userSpaceOnUse"><feOffset dy="3" input="SourceAlpha"/><feGaussianBlur stdDeviation="3" result="b"/><feFlood flood-opacity="0.161"/><feComposite operator="in" in2="b"/><feComposite in="SourceGraphic"/></filter><filter id="c" x="0" y="0" width="250" height="86" filterUnits="userSpaceOnUse"><feOffset dy="3" input="SourceAlpha"/><feGaussianBlur stdDeviation="3" result="d"/><feFlood flood-opacity="0.161"/><feComposite operator="in" in2="d"/><feComposite in="SourceGraphic"/></filter></defs><g transform="translate(-63 -289)"><g transform="matrix(1, 0, 0, 1, 63, 289)" filter="url(#a)"><g transform="translate(9 86)" fill="#a2a2a2" stroke="rgba(0,0,0,0)" stroke-width="1"><rect width="232" height="184" rx="17" stroke="none"/><rect x="0.5" y="0.5" width="231" height="183" rx="16.5" fill="none"/></g></g><g transform="matrix(1, 0, 0, 1, 63, 289)" filter="url(#c)"><g transform="translate(9 6)" fill="#fff" stroke="rgba(0,0,0,0)" stroke-width="1"><rect width="232" height="68" rx="17" stroke="none"/><rect x="0.5" y="0.5" width="231" height="67" rx="16.5" fill="none"/></g></g><g transform="translate(143.647 321.273) rotate(180)" fill="#b7b7b7" stroke="#b7b7b7" stroke-width="1" opacity="0.55"><rect width="56.736" height="12.545" rx="6.273" stroke="none"/><rect x="0.5" y="0.5" width="55.736" height="11.545" rx="5.773" fill="none"/></g><g transform="translate(178.776 343.273) rotate(180)" fill="#b7b7b7" stroke="#b7b7b7" stroke-width="1" opacity="0.55"><rect width="91.865" height="12.545" rx="6.273" stroke="none"/><rect x="0.5" y="0.5" width="90.865" height="11.545" rx="5.773" fill="none"/></g><g transform="translate(197.936 309.321)"><path d="M7.192,35.847h.1a11.472,11.472,0,0,0,8.067-3.763,11.494,11.494,0,0,0,8.067,3.787,11.5,11.5,0,0,0,8.067-3.791,11.476,11.476,0,0,0,8.067,3.767h.1l4.847-12.291a1.866,1.866,0,0,0-1.29-2.444L39.6,20.006V11.313a3.986,3.986,0,0,0-4.077-3.807h-6.05L27.964,2.813H18.889L17.376,7.506h-6.05a3.974,3.974,0,0,0-4.064,3.807v8.693l-3.6,1.11a1.98,1.98,0,0,0-1.2.945,1.908,1.908,0,0,0-.1,1.5Zm4.137-24.532h24.21v7.462l-12.1-3.685-12.1,3.685Z" fill="#ff851c"/><path d="M31.841,28.688a19.459,19.459,0,0,1-16.826,0s-5.684,4.5-10.516,4.5H6.6a24.391,24.391,0,0,0,8.413-1.8,24.927,24.927,0,0,0,16.826,0,24.389,24.389,0,0,0,8.413,1.8h2.1C37.658,33.188,31.841,28.688,31.841,28.688Z" transform="translate(0 6.813)" fill="#ff851c"/></g><g transform="translate(292.472 321.273) rotate(180)" fill="#b7b7b7" stroke="#b7b7b7" stroke-width="1" opacity="0.55"><rect width="37.394" height="12.545" rx="6.273" stroke="none"/><rect x="0.5" y="0.5" width="36.394" height="11.545" rx="5.773" fill="none"/></g><path d="M62.883,15.939a9.18,9.18,0,0,0,6.03-2.164,6.967,6.967,0,0,0,2.5-5.251c0-4.074-3.808-7.412-8.528-7.412s-8.528,3.338-8.528,7.412a6.969,6.969,0,0,0,2.5,5.25,9.183,9.183,0,0,0,6.029,2.164Zm53.487,84.979a20.767,20.767,0,0,0-7.77-1.507,21.018,21.018,0,0,0-7.77,1.507,21.067,21.067,0,0,1-7.519,1.4,21.346,21.346,0,0,1-7.557-1.4,20.775,20.775,0,0,0-15.534,0,21.01,21.01,0,0,1-15.105,0,20.731,20.731,0,0,0-7.767-1.507,20.981,20.981,0,0,0-7.767,1.507,21.035,21.035,0,0,1-7.5,1.4,21.325,21.325,0,0,1-7.554-1.4,20.775,20.775,0,0,0-15.534,0,21.384,21.384,0,0,1-7.554,1.407v9.819a20.831,20.831,0,0,0,7.554-1.4,20.774,20.774,0,0,1,15.534,0,20.873,20.873,0,0,0,15.055,0,20.972,20.972,0,0,1,7.767-1.507,20.728,20.728,0,0,1,7.767,1.507,20.992,20.992,0,0,0,15.105,0,20.774,20.774,0,0,1,15.534,0,20.746,20.746,0,0,0,7.557,1.4,20.525,20.525,0,0,0,7.519-1.4,21.017,21.017,0,0,1,7.77-1.507,20.763,20.763,0,0,1,7.77,1.507,20.8,20.8,0,0,0,7.551,1.4v-9.819a21.36,21.36,0,0,1-7.551-1.407Zm.7-100.1a2.376,2.376,0,0,0-2.029.318l-31.2,27.382c-.487-.186-1.134.056-1.715.056H70.347c-2.013-2.321-12.672-11.388-12.672-11.388a4.717,4.717,0,0,0-1.949-1.075,6.869,6.869,0,0,0-8.467.123L29.025,32.184a2.894,2.894,0,0,0-.959,2.312v10.33H1.44v4.643H28.066V76.217c0,3.31,2.844,5.984,6.638,5.984,3.77,0,6.675-2.674,6.675-5.984V49.468H60.018v34.82H1.44v6.964h63.9V49.468h7.988V44.825H41.38V42.913L58.62,27.984l7.037,6.293A4.638,4.638,0,0,0,68.64,35.54H82.129c2.322,0,4.516-.309,4.516-2.321a10.252,10.252,0,0,0,0-2.321c7.37-6.407,26.626-22.162,29.289-25.365V91.252H118.6V2.143c0-.583-.916-1.084-1.523-1.323Z" transform="translate(160.803 425.28)" fill="#a9c7f8"/><rect width="181.865" height="12.545" rx="6.273" transform="translate(268.776 407.273) rotate(180)" fill="#fff"/><rect width="101.551" height="12.545" rx="6.273" transform="translate(188.462 432.273) rotate(180)" fill="#fff"/></g></svg>