<svg xmlns="http://www.w3.org/2000/svg" xmlns:xlink="http://www.w3.org/1999/xlink" width="195.271" height="242.637" viewBox="0 0 195.271 242.637"><defs><filter id="a" x="63" y="68.199" width="66" height="174.219" filterUnits="userSpaceOnUse"><feOffset dy="3" input="SourceAlpha"/><feGaussianBlur stdDeviation="3" result="b"/><feFlood flood-opacity="0.161"/><feComposite operator="in" in2="b"/><feComposite in="SourceGraphic"/></filter><filter id="c" x="0" y="120.821" width="66" height="121.816" filterUnits="userSpaceOnUse"><feOffset dy="3" input="SourceAlpha"/><feGaussianBlur stdDeviation="3" result="d"/><feFlood flood-opacity="0.161"/><feComposite operator="in" in2="d"/><feComposite in="SourceGraphic"/></filter><filter id="e" x="129.271" y="150.528" width="66" height="90.451" filterUnits="userSpaceOnUse"><feOffset dy="3" input="SourceAlpha"/><feGaussianBlur stdDeviation="3" result="f"/><feFlood flood-opacity="0.161"/><feComposite operator="in" in2="f"/><feComposite in="SourceGraphic"/></filter></defs><g transform="translate(-70.271 -428.389)"><path d="M18.831,14.573H3.995a.549.549,0,0,0-.571.52v1.041a.549.549,0,0,0,.571.52H18.831a.549.549,0,0,0,.571-.52V15.093A.549.549,0,0,0,18.831,14.573ZM21.114,4.164A1.642,1.642,0,0,0,19.4,5.725a1.418,1.418,0,0,0,.157.644L16.977,7.781A1.2,1.2,0,0,1,15.4,7.4L12.494,2.765a1.507,1.507,0,0,0,.631-1.2A1.642,1.642,0,0,0,11.413,0,1.642,1.642,0,0,0,9.7,1.561a1.507,1.507,0,0,0,.631,1.2L7.426,7.4a1.2,1.2,0,0,1-1.576.377L3.271,6.369a1.455,1.455,0,0,0,.157-.644A1.642,1.642,0,0,0,1.716,4.164,1.646,1.646,0,0,0,0,5.725,1.642,1.642,0,0,0,1.712,7.286a1.911,1.911,0,0,0,.275-.026l2.579,6.271h13.7L20.839,7.26a1.911,1.911,0,0,0,.275.026,1.642,1.642,0,0,0,1.712-1.561A1.642,1.642,0,0,0,21.114,4.164Z" transform="translate(154.587 428.389)" fill="#fff"/><g transform="matrix(1, 0, 0, 1, 70.27, 428.39)" filter="url(#a)"><rect width="156.219" height="48" rx="15" transform="translate(72 230.42) rotate(-90)" fill="#deebff"/></g><g transform="matrix(1, 0, 0, 1, 70.27, 428.39)" filter="url(#c)"><rect width="103.816" height="48" rx="15" transform="translate(9 230.64) rotate(-90)" fill="#feeddf"/></g><g transform="matrix(1, 0, 0, 1, 70.27, 428.39)" filter="url(#e)"><rect width="72.451" height="48" rx="15" transform="translate(138.27 228.98) rotate(-90)" fill="#fcdbdb"/></g><circle cx="21" cy="21" r="21" transform="translate(82 502.588)" fill="#feeddf"/><path d="M23.652,23.178c-.359-1.587-2.41-2.36-3.119-2.61a23.253,23.253,0,0,0-2.6-.5,2.641,2.641,0,0,1-1.2-.554,10.51,10.51,0,0,1-.08-2.46,7.4,7.4,0,0,0,.569-1.083,13.967,13.967,0,0,0,.419-1.891s.409,0,.554-.719a7.07,7.07,0,0,0,.369-1.672c-.03-.574-.344-.559-.344-.559a8.749,8.749,0,0,0,.339-2.56C18.6,6.521,17,4.5,14.086,4.5c-2.949,0-4.521,2.021-4.476,4.072a9.126,9.126,0,0,0,.334,2.56s-.314-.015-.344.559a7.07,7.07,0,0,0,.369,1.672c.14.719.554.719.554.719a13.967,13.967,0,0,0,.419,1.891,7.4,7.4,0,0,0,.569,1.083,10.51,10.51,0,0,1-.08,2.46,2.641,2.641,0,0,1-1.2.554,23.252,23.252,0,0,0-2.6.5c-.709.25-2.759,1.023-3.119,2.61a.4.4,0,0,0,.394.484H23.263A.4.4,0,0,0,23.652,23.178Z" transform="translate(88.919 509.507)" fill="#6a6a6a"/><circle cx="21" cy="21" r="21" transform="translate(145 450.368)" fill="#deebff"/><path d="M23.652,23.178c-.359-1.587-2.41-2.36-3.119-2.61a23.253,23.253,0,0,0-2.6-.5,2.641,2.641,0,0,1-1.2-.554,10.51,10.51,0,0,1-.08-2.46,7.4,7.4,0,0,0,.569-1.083,13.967,13.967,0,0,0,.419-1.891s.409,0,.554-.719a7.07,7.07,0,0,0,.369-1.672c-.03-.574-.344-.559-.344-.559a8.749,8.749,0,0,0,.339-2.56C18.6,6.521,17,4.5,14.086,4.5c-2.949,0-4.521,2.021-4.476,4.072a9.126,9.126,0,0,0,.334,2.56s-.314-.015-.344.559a7.07,7.07,0,0,0,.369,1.672c.14.719.554.719.554.719a13.967,13.967,0,0,0,.419,1.891,7.4,7.4,0,0,0,.569,1.083,10.51,10.51,0,0,1-.08,2.46,2.641,2.641,0,0,1-1.2.554,23.252,23.252,0,0,0-2.6.5c-.709.25-2.759,1.023-3.119,2.61a.4.4,0,0,0,.394.484H23.263A.4.4,0,0,0,23.652,23.178Z" transform="translate(151.919 457.287)" fill="#6a6a6a"/><circle cx="21" cy="21" r="21" transform="translate(211.271 533.295)" fill="#fcdbdb"/><path d="M23.652,23.178c-.359-1.587-2.41-2.36-3.119-2.61a23.253,23.253,0,0,0-2.6-.5,2.641,2.641,0,0,1-1.2-.554,10.51,10.51,0,0,1-.08-2.46,7.4,7.4,0,0,0,.569-1.083,13.967,13.967,0,0,0,.419-1.891s.409,0,.554-.719a7.07,7.07,0,0,0,.369-1.672c-.03-.574-.344-.559-.344-.559a8.749,8.749,0,0,0,.339-2.56C18.6,6.521,17,4.5,14.086,4.5c-2.949,0-4.521,2.021-4.476,4.072a9.126,9.126,0,0,0,.334,2.56s-.314-.015-.344.559a7.07,7.07,0,0,0,.369,1.672c.14.719.554.719.554.719a13.967,13.967,0,0,0,.419,1.891,7.4,7.4,0,0,0,.569,1.083,10.51,10.51,0,0,1-.08,2.46,2.641,2.641,0,0,1-1.2.554,23.252,23.252,0,0,0-2.6.5c-.709.25-2.759,1.023-3.119,2.61a.4.4,0,0,0,.394.484H23.263A.4.4,0,0,0,23.652,23.178Z" transform="translate(218.19 540.214)" fill="#6a6a6a"/></g></svg>