<svg xmlns="http://www.w3.org/2000/svg" xmlns:xlink="http://www.w3.org/1999/xlink" width="334" height="253" viewBox="0 0 334 253"><defs><filter id="a" x="53" y="0" width="176" height="68" filterUnits="userSpaceOnUse"><feOffset dy="3" input="SourceAlpha"/><feGaussianBlur stdDeviation="3" result="b"/><feFlood flood-opacity="0.161"/><feComposite operator="in" in2="b"/><feComposite in="SourceGraphic"/></filter><filter id="c" x="106" y="63" width="176" height="129" filterUnits="userSpaceOnUse"><feOffset dy="3" input="SourceAlpha"/><feGaussianBlur stdDeviation="3" result="d"/><feFlood flood-opacity="0.161"/><feComposite operator="in" in2="d"/><feComposite in="SourceGraphic"/></filter><filter id="e" x="106" y="189" width="176" height="64" filterUnits="userSpaceOnUse"><feOffset dy="3" input="SourceAlpha"/><feGaussianBlur stdDeviation="3" result="f"/><feFlood flood-opacity="0.161"/><feComposite operator="in" in2="f"/><feComposite in="SourceGraphic"/></filter><filter id="g" x="170" y="212" width="112" height="41" filterUnits="userSpaceOnUse"><feOffset dy="3" input="SourceAlpha"/><feGaussianBlur stdDeviation="3" result="h"/><feFlood flood-opacity="0.161"/><feComposite operator="in" in2="h"/><feComposite in="SourceGraphic"/></filter><filter id="i" x="0" y="8" width="60" height="60" filterUnits="userSpaceOnUse"><feOffset dy="3" input="SourceAlpha"/><feGaussianBlur stdDeviation="3" result="j"/><feFlood flood-opacity="0.161"/><feComposite operator="in" in2="j"/><feComposite in="SourceGraphic"/></filter><filter id="k" x="274" y="193" width="60" height="60" filterUnits="userSpaceOnUse"><feOffset dy="3" input="SourceAlpha"/><feGaussianBlur stdDeviation="3" result="l"/><feFlood flood-opacity="0.161"/><feComposite operator="in" in2="l"/><feComposite in="SourceGraphic"/></filter></defs><g transform="translate(-21 -61)"><g transform="matrix(1, 0, 0, 1, 21, 61)" filter="url(#a)"><rect width="158" height="50" rx="25" transform="translate(62 6)" fill="#f2f2f2"/></g><rect width="64" height="25" transform="translate(83 92)" fill="#f2f2f2"/><g transform="matrix(1, 0, 0, 1, 21, 61)" filter="url(#c)"><rect width="158" height="111" rx="17" transform="translate(115 69)" fill="#333"/></g><g transform="matrix(1, 0, 0, 1, 21, 61)" filter="url(#e)"><rect width="158" height="46" rx="23" transform="translate(115 195)" fill="#333"/></g><g transform="matrix(1, 0, 0, 1, 21, 61)" filter="url(#g)"><rect width="94" height="23" transform="translate(179 218)" fill="#333"/></g><g transform="matrix(1, 0, 0, 1, 21, 61)" filter="url(#i)"><circle cx="21" cy="21" r="21" transform="translate(9 14)" fill="#fcc"/></g><path d="M23.652,23.178c-.359-1.587-2.41-2.36-3.119-2.61a23.253,23.253,0,0,0-2.6-.5,2.641,2.641,0,0,1-1.2-.554,10.51,10.51,0,0,1-.08-2.46,7.4,7.4,0,0,0,.569-1.083,13.967,13.967,0,0,0,.419-1.891s.409,0,.554-.719a7.07,7.07,0,0,0,.369-1.672c-.03-.574-.344-.559-.344-.559a8.749,8.749,0,0,0,.339-2.56C18.6,6.521,17,4.5,14.086,4.5c-2.949,0-4.521,2.021-4.476,4.072a9.126,9.126,0,0,0,.334,2.56s-.314-.015-.344.559a7.07,7.07,0,0,0,.369,1.672c.14.719.554.719.554.719a13.967,13.967,0,0,0,.419,1.891,7.4,7.4,0,0,0,.569,1.083,10.51,10.51,0,0,1-.08,2.46,2.641,2.641,0,0,1-1.2.554,23.252,23.252,0,0,0-2.6.5c-.709.25-2.759,1.023-3.119,2.61a.4.4,0,0,0,.394.484H23.263A.4.4,0,0,0,23.652,23.178Z" transform="translate(36.919 81.919)" fill="#fff2f2"/><g transform="matrix(1, 0, 0, 1, 21, 61)" filter="url(#k)"><circle cx="21" cy="21" r="21" transform="translate(283 199)" fill="#ccd8ff"/></g><path d="M23.652,23.178c-.359-1.587-2.41-2.36-3.119-2.61a23.253,23.253,0,0,0-2.6-.5,2.641,2.641,0,0,1-1.2-.554,10.51,10.51,0,0,1-.08-2.46,7.4,7.4,0,0,0,.569-1.083,13.967,13.967,0,0,0,.419-1.891s.409,0,.554-.719a7.07,7.07,0,0,0,.369-1.672c-.03-.574-.344-.559-.344-.559a8.749,8.749,0,0,0,.339-2.56C18.6,6.521,17,4.5,14.086,4.5c-2.949,0-4.521,2.021-4.476,4.072a9.126,9.126,0,0,0,.334,2.56s-.314-.015-.344.559a7.07,7.07,0,0,0,.369,1.672c.14.719.554.719.554.719a13.967,13.967,0,0,0,.419,1.891,7.4,7.4,0,0,0,.569,1.083,10.51,10.51,0,0,1-.08,2.46,2.641,2.641,0,0,1-1.2.554,23.252,23.252,0,0,0-2.6.5c-.709.25-2.759,1.023-3.119,2.61a.4.4,0,0,0,.394.484H23.263A.4.4,0,0,0,23.652,23.178Z" transform="translate(310.919 266.919)" fill="#fff2f2"/></g></svg>